<svg xmlns="http://www.w3.org/2000/svg" viewBox="0 0 160 40"><path fill="#00A7D5" d="M79.465 19.31c.43-.183.844-.367 1.25-.55-.253 1.394-.393 2.63-.393 3.588 0 3.66 2.025 5.685 4.867 5.685 4.282 0 7.98-4.594 8.487-8.72a13.246 13.246 0 0 0 3.275-1.318c.986.523 2.18.81 3.383.81 0 0-3.932 3.544-3.932 6.27 0 1.907 1.168 2.958 3.348 2.958 2.423 0 4.825-1.47 6.87-3.282.395 2.126 1.658 3.283 3.873 3.283 1.79 0 3.232-.818 4.32-2.102.35 1.13 1.052 2.103 2.337 2.103.895 0 1.69-.27 2.48-.813 0 .013-.004.025-.006.038.44-.297.88-.678 1.332-1.154.13 1.367.784 1.93 1.688 1.93 2.14 0 3.193-2.844 4.05-5.1.895-2.26 3.425-5.764 4.4-5.764.272 0 .35.117.35.35 0 1.052-2.103 4.128-2.103 7.01 0 1.4.35 3.503 2.804 3.503 1.557 0 2.65-.384 4.472-2.25.465 1.333 1.567 2.26 3.815 2.26 2.064 0 3.66-1.13 4.83-2.804 1.1 2.2 2.45 2.803 4.653 2.803 2.232 0 5.568-3.203 5.898-6.06 2.542-.664 3.98-2.235 3.98-2.235a.667.667 0 0 0 .21-.46c0-.188-.11-.375-.377-.374-.08 0-.214.03-.32.11-.934.815-2.563 1.607-3.42 1.746-.04-1.965-1.12-3.17-2.38-3.16-1.125.006-2.03.982-2.024 2.032.007 1.185 1.222 2.524 2.91 2.512h.135c-.446 1.536-1.908 3.35-3.355 3.36-.206 0-1.59-.103-1.59-3.195 0-.74.118-1.792.35-3.194 3.466-5.1 8.02-12.498 8.02-16.313 0-1.752-.7-2.803-2.452-2.803-3.348 0-6.697 7.28-8.682 13.977-.7-.623-1.83-1.012-2.53-1.012-4.115 0-6.992 4.913-7.72 8.52-.165.92-.267 1.86-.228 2.732-.935.913-1.627 1.353-2.093 1.353-.428 0-.74-.39-.74-1.13 0-.427.117-1.01.39-1.673.7-1.752 2.453-4.556 2.453-7.71 0-1.284-.662-2.1-1.947-2.1-2.49 0-5.294 3.347-7.28 6.306.584-1.79.895-3.27.895-4.36 0-1.247-.428-1.947-1.48-1.947-1.634 0-3.152 1.05-3.503 3.504-.532 3.647-1.26 5.218-1.706 6.643-.94 1.067-1.79 1.767-2.426 1.767-.7 0-1.05-.506-1.05-1.907 0 0 3.348-4.906 3.348-8.06 0-1.285-1.363-1.946-2.648-1.946-.506 0-1.012.506-1.48 1.324-.545-.66-1.596-1.323-2.608-1.323-4.692 0-7.9 6.494-7.978 10.03-1.41 1.36-2.886 2.43-4.048 2.43-.7 0-1.285-.352-1.285-1.247 0-1.518 1.13-3.854 3.155-5.762 0 0 3.076-.78 3.076-2.22 0-.818-.427-1.635-1.634-1.635-1.168 0-2.492 1.402-4.672 1.402-.638 0-1.086-.13-1.343-.23a.77.77 0 0 0 .06-.276.56.56 0 0 0-.154-.4 5.36 5.36 0 0 0 .115-1.12c0-1.596-.7-3.23-2.1-3.23-1.987 0-3.038 2.102-3.038 3.854 0 .943.375 1.757.986 2.414-.687.297-1.328.51-1.804.583-.04-2.84-1.596-4.593-3.426-4.593-1.635 0-2.96 1.4-2.96 2.92 0 1.713 1.753 3.66 4.206 3.66h.195c-.663 2.22-2.804 4.828-4.907 4.828-1.674 0-2.22-1.674-2.22-3.504 0-1.284.274-1.906.468-2.958 2.882-3.738 7.944-10.357 7.944-14.99 0-1.87-.817-2.92-2.18-2.92-4.17 0-8.292 10.042-9.893 17.252-.468.234-.98.477-1.553.735m-.002-.003v-.015m75.682-12.356c.195 0 .273.194.273.467 0 1.324-2.102 5.723-4.477 9.188 0 0 3.153-9.654 4.204-9.654zm-64.82-.01c.157 0 .235.194.235.39 0 1.13-1.87 4.633-4.477 8.37 0 0 3.114-8.76 4.243-8.76zm-.038 10.902c0-.428.272-.662.583-.662.506 0 1.207.584 1.246 1.907-1.13-.077-1.83-.584-1.83-1.245zm24.25 7.163c-.584.74-1.285 1.208-2.103 1.208-1.324 0-1.79-1.012-1.79-2.297 0-1.245.427-2.724.895-3.658.78-1.52 1.986-3.037 3.465-3.037.39 0 .78.117 1.207.35-.934 2.687-1.635 6.19-1.674 7.436zm30.446-.768c-.662 1.168-1.557 1.985-2.647 1.985-1.325 0-1.792-1.012-1.792-2.297 0-1.246.467-2.725.934-3.66.78-1.518 1.986-3.036 3.465-3.036.39 0 .817.117 1.246.35-.7 2.648-1.09 5.023-1.207 6.658zm8.478-2.844c-.002-.297.185-.46.4-.46.348-.002.833.398.866 1.313-.777-.047-1.263-.394-1.266-.852z"/><path fill="#515255" d="M79.465 17.948c-.156-2.26-1.05-5.022-4.166-5.022-1.948 0-3.66 1.596-5.023 3.348.078-.272.156-.584.156-1.168 0-1.285-.31-2.18-1.207-2.18-1.674 0-3.232 1.05-3.504 3.504-.26 2.272-.528 4.383-.796 6.31-1.427 1.74-2.118 2.294-2.942 2.294-.78 0-1.05-.74-1.05-1.713 0-1.595.7-3.737.7-3.737s2.102-2.803 2.102-4.555c0-1.285-.662-2.102-1.908-2.102-2.297 0-4.244 5.022-4.867 9.07-.894 1.597-1.907 2.843-2.84 2.843-.546 0-.82-.624-.82-1.636 0-.623.08-1.362.274-2.22 0 0 2.297-2.803 2.297-5.956 0-1.285-.66-2.102-1.946-2.102-1.4 0-2.576 1.883-3.403 4.268a8.93 8.93 0 0 1-.502.16v.02a4.72 4.72 0 0 1-.863.18c-.04-2.803-1.48-4.594-3.35-4.594-1.128 0-2.024.623-2.607 1.596-.04-.467-.312-.7-.7-.7-1.636 0-5.608 4.05-5.608 9.033 0 .027.003.052.003.08-1.404 1.352-2.875 2.415-4.033 2.415-.7 0-1.285-.35-1.285-1.246 0-1.52 1.13-3.855 3.154-5.763 0 0 3.075-.78 3.075-2.22 0-.817-.428-1.635-1.635-1.635-1.168 0-2.492 1.402-4.672 1.402-1.05 0-1.596-.35-1.596-.35.195-.507.273-1.09.273-1.675 0-1.598-.7-3.233-2.102-3.233-1.986 0-3.037 2.103-3.037 3.855 0 1.78 1.324 3.105 3.08 3.77-1.497 2-3.89 5.147-7.44 7.482.35-1.986.505-3.62.583-4.556 0 0 2.452-2.803 2.452-5.8 0-1.598-.467-2.454-2.102-2.454-2.453 0-4.01 4.867-4.594 9.11-1.908 2.142-4.244 3.932-6.62 3.932-2.646 0-4.437-1.986-4.437-5.918 0-3.582 1.48-7.748 3.23-10.63 1.792.312 3.894.507 6.386.507 9.967 0 12.692-3.97 12.692-6.074C28.266 1.79 26.864 0 21.725 0 17.13 0 12.342 2.414 8.488 5.84c-.935-.78-1.48-1.752-1.48-2.726 0-2.063 2.18-2.453 2.18-2.842 0-.078-.117-.194-.39-.194-4.205 0-7.242 1.947-7.242 4.36 0 1.364 1.324 2.96 4.283 4.09C2.335 12.537 0 17.324 0 21.413c0 5.84 3.426 8.176 8.254 8.176 2.414 0 5.412-1.324 8.098-3.504l-.467 2.063c-5.88 2.646-8.643 5.02-8.643 7.864 0 2.18 1.674 3.776 4.127 3.776 5.372 0 7.825-6.62 8.954-12.108 4.964-3.055 7.512-6.725 9.137-9.03.426.072.86.114 1.298.114 0 0-3.932 3.543-3.932 6.268 0 1.908 1.168 2.96 3.348 2.96 2.44 0 4.862-1.496 6.916-3.326.544 2.24 2.162 3.36 4.24 3.36 4.127 0 7.242-4.36 7.71-8.682.32-.08.625-.172.923-.27a26.762 26.762 0 0 0-.473 2.32c-.18 1.125-.276 2.198-.276 3.093 0 1.4.506 3.503 2.96 3.503 1.634 0 3.192-1.324 4.593-3.076.078 1.362.584 3.076 2.764 3.076 1.706 0 2.88-.393 5.033-2.746-.728 4.82-1.42 8.158-1.878 9.48-.662 1.87-1.207 1.987-1.557 1.987-.31 0-.39.117-.39.35 0 1.246.585 2.687 2.61 2.687 2.88 0 4.283-5.566 5.256-12.73.584.584 1.402.973 2.492.973 6.385 0 8.176-5.685 8.37-8.72.02-.31.03-1.087 0-1.325zM19.935 2.025c1.868 0 2.646.896 2.646 1.908 0 3.27-5.372 3.854-7.63 3.854-1.557 0-2.96-.195-4.127-.623 2.453-3.037 5.685-5.14 9.11-5.14zm-8.41 33.677c-.702 0-1.208-.506-1.208-1.207 0-1.246 2.414-2.92 5.022-4.244-.818 2.65-2.414 5.452-3.816 5.452zm31.245-11.45c-1.674 0-2.22-1.597-2.22-3.544 0-.117.04-.233.04-.35.662-.857 1.79-2.414 2.297-4.01.35 1.79 1.947 3.27 4.088 3.27h.234c-.546 2.297-2.337 4.634-4.44 4.634zm2.882-7.748c0-.428.272-.662.584-.662.506 0 1.207.584 1.246 1.907-1.13-.08-1.83-.584-1.83-1.246zm25.793 9.153c-.584 0-1.13-.39-1.13-1.012 0-1.635 2.765-2.88 4.83-3.62-.47 2.84-2.104 4.632-3.7 4.632zm3.854-6.112c-2.337.818-4.712 1.596-6.152 3.037.78-4.204 2.764-6.657 4.205-6.657 1.246 0 1.947 1.05 1.947 3.31v.31z"/></svg>