<?xml version="1.0" encoding="utf-8"?>
<!-- Generator: Adobe Illustrator 17.1.0, SVG Export Plug-In . SVG Version: 6.00 Build 0)  -->
<!DOCTYPE svg PUBLIC "-//W3C//DTD SVG 1.1//EN" "http://www.w3.org/Graphics/SVG/1.1/DTD/svg11.dtd">
<svg version="1.1" id="Layer_1" xmlns="http://www.w3.org/2000/svg" xmlns:xlink="http://www.w3.org/1999/xlink" x="0px" y="0px"
	 viewBox="0 0 160 40" enable-background="new 0 0 160 40" xml:space="preserve">
<path fill="#00A7D5" d="M79.465,19.311c0.429-0.184,0.844-0.368,1.25-0.552c-0.253,1.395-0.393,2.631-0.393,3.589
	c0,3.66,2.025,5.685,4.867,5.685c4.283,0,7.981-4.594,8.488-8.721c1.297-0.328,2.393-0.818,3.275-1.317
	c0.986,0.523,2.179,0.811,3.383,0.811c0,0-3.932,3.543-3.932,6.268c0,1.908,1.168,2.959,3.348,2.959
	c2.422,0,4.824-1.471,6.868-3.282c0.396,2.125,1.659,3.282,3.874,3.282c1.791,0,3.232-0.818,4.321-2.102
	c0.35,1.129,1.051,2.102,2.336,2.102c0.895,0,1.69-0.27,2.481-0.813c-0.002,0.013-0.005,0.025-0.007,0.038
	c0.441-0.297,0.88-0.678,1.332-1.154c0.13,1.367,0.784,1.929,1.688,1.929c2.141,0,3.193-2.843,4.049-5.1
	c0.896-2.259,3.426-5.763,4.4-5.763c0.273,0,0.35,0.117,0.35,0.351c0,1.051-2.102,4.127-2.102,7.008c0,1.402,0.35,3.504,2.803,3.504
	c1.557,0,2.651-0.384,4.472-2.249c0.465,1.332,1.567,2.259,3.815,2.259c2.063,0,3.66-1.129,4.828-2.804
	c1.102,2.201,2.451,2.804,4.654,2.804c2.232,0,5.568-3.203,5.898-6.06c2.541-0.664,3.979-2.235,3.979-2.235
	c0.133-0.136,0.212-0.298,0.211-0.459c-0.001-0.189-0.11-0.376-0.378-0.375c-0.081,0.001-0.214,0.029-0.321,0.11
	c-0.933,0.815-2.562,1.607-3.42,1.746c-0.039-1.965-1.12-3.17-2.379-3.161c-1.125,0.007-2.031,0.983-2.024,2.033
	c0.008,1.185,1.223,2.524,2.912,2.512l0.134-0.001c-0.446,1.537-1.908,3.351-3.355,3.361c-0.206,0.001-1.589-0.103-1.589-3.195
	c0-0.74,0.117-1.791,0.35-3.193c3.465-5.1,8.02-12.498,8.02-16.313c0-1.752-0.701-2.803-2.453-2.803
	c-3.348,0-6.697,7.28-8.682,13.977c-0.701-0.623-1.83-1.012-2.531-1.012c-4.114,0-6.991,4.913-7.72,8.52
	c-0.164,0.921-0.266,1.861-0.227,2.732c-0.935,0.913-1.627,1.353-2.093,1.353c-0.428,0-0.74-0.39-0.74-1.129
	c0-0.428,0.117-1.012,0.39-1.674c0.701-1.752,2.453-4.556,2.453-7.709c0-1.285-0.662-2.102-1.947-2.102
	c-2.492,0-5.295,3.348-7.281,6.307c0.584-1.791,0.895-3.27,0.895-4.361c0-1.246-0.428-1.946-1.479-1.946
	c-1.635,0-3.153,1.051-3.504,3.504c-0.532,3.647-1.261,5.218-1.706,6.643c-0.941,1.067-1.791,1.767-2.426,1.767
	c-0.701,0-1.051-0.506-1.051-1.907c0,0,3.349-4.906,3.349-8.06c0-1.285-1.363-1.946-2.648-1.946c-0.506,0-1.012,0.506-1.48,1.324
	c-0.545-0.662-1.596-1.324-2.608-1.324c-4.692,0-7.901,6.494-7.978,10.03c-1.409,1.359-2.886,2.429-4.048,2.429
	c-0.701,0-1.285-0.351-1.285-1.246c0-1.518,1.129-3.854,3.154-5.762c0,0,3.076-0.779,3.076-2.22c0-0.818-0.428-1.635-1.635-1.635
	c-1.168,0-2.492,1.402-4.672,1.402c-0.638,0-1.086-0.129-1.343-0.23c0.035-0.091,0.058-0.183,0.058-0.276
	c0-0.149-0.049-0.296-0.153-0.4c0.077-0.359,0.115-0.738,0.115-1.118c0-1.597-0.701-3.232-2.102-3.232
	c-1.986,0-3.037,2.103-3.037,3.855c0,0.943,0.375,1.757,0.986,2.414c-0.687,0.297-1.328,0.509-1.804,0.583
	c-0.039-2.842-1.596-4.594-3.426-4.594c-1.635,0-2.959,1.401-2.959,2.92c0,1.713,1.752,3.66,4.205,3.66h0.195
	c-0.662,2.219-2.803,4.828-4.906,4.828c-1.674,0-2.219-1.674-2.219-3.504c0-1.285,0.273-1.907,0.467-2.959
	c2.881-3.738,7.943-10.357,7.943-14.99c0-1.869-0.817-2.92-2.18-2.92c-4.17,0-8.292,10.042-9.893,17.252
	c-0.469,0.234-0.981,0.477-1.554,0.735 M79.465,17.987c0-0.005-0.001-0.01-0.001-0.015 M155.147,5.616
	c0.195,0,0.273,0.194,0.273,0.467c0,1.324-2.102,5.723-4.477,9.188C150.943,15.271,154.096,5.616,155.147,5.616z M90.328,5.606
	c0.156,0,0.234,0.194,0.234,0.39c0,1.129-1.869,4.633-4.477,8.37C86.084,14.366,89.199,5.606,90.328,5.606z M90.289,16.508
	c0-0.428,0.273-0.662,0.584-0.662c0.506,0,1.207,0.584,1.246,1.907C90.99,17.676,90.289,17.169,90.289,16.508z M114.54,23.671
	c-0.584,0.74-1.285,1.207-2.103,1.207c-1.324,0-1.791-1.012-1.791-2.297c0-1.246,0.428-2.725,0.896-3.659
	c0.779-1.519,1.986-3.037,3.465-3.037c0.389,0,0.779,0.117,1.207,0.35C115.28,18.922,114.579,22.426,114.54,23.671z M144.986,22.902
	c-0.662,1.168-1.557,1.985-2.647,1.985c-1.324,0-1.791-1.012-1.791-2.297c0-1.246,0.467-2.725,0.934-3.659
	c0.779-1.519,1.986-3.037,3.465-3.037c0.39,0,0.817,0.117,1.246,0.35C145.492,18.892,145.103,21.267,144.986,22.902z
	 M153.464,20.058c-0.002-0.297,0.185-0.459,0.399-0.46c0.349-0.002,0.834,0.398,0.867,1.313
	C153.953,20.863,153.467,20.516,153.464,20.058z"/>
<path fill="#515255" d="M79.465,17.948c-0.156-2.259-1.051-5.022-4.166-5.022c-1.947,0-3.66,1.596-5.022,3.348
	c0.078-0.272,0.156-0.584,0.156-1.168c0-1.285-0.311-2.18-1.207-2.18c-1.674,0-3.232,1.051-3.504,3.504
	c-0.26,2.272-0.528,4.383-0.796,6.311c-1.427,1.739-2.118,2.293-2.942,2.293c-0.779,0-1.051-0.74-1.051-1.713
	c0-1.596,0.701-3.738,0.701-3.738s2.102-2.803,2.102-4.555c0-1.285-0.662-2.102-1.908-2.102c-2.297,0-4.244,5.022-4.867,9.071
	c-0.895,1.596-1.908,2.842-2.842,2.842c-0.545,0-0.818-0.623-0.818-1.635c0-0.623,0.078-1.362,0.273-2.219
	c0,0,2.297-2.804,2.297-5.957c0-1.285-0.662-2.102-1.947-2.102c-1.4,0-2.576,1.883-3.403,4.268
	c-0.175,0.061-0.341,0.113-0.503,0.159c0,0.007-0.001,0.014-0.001,0.021c-0.323,0.094-0.617,0.158-0.862,0.18
	c-0.039-2.803-1.48-4.594-3.349-4.594c-1.129,0-2.025,0.623-2.608,1.596c-0.039-0.467-0.312-0.7-0.701-0.7
	c-1.635,0-5.607,4.049-5.607,9.033c0,0.028,0.003,0.053,0.003,0.081c-1.404,1.352-2.875,2.415-4.033,2.415
	c-0.701,0-1.285-0.351-1.285-1.246c0-1.518,1.129-3.854,3.154-5.762c0,0,3.076-0.779,3.076-2.22c0-0.817-0.428-1.635-1.635-1.635
	c-1.168,0-2.492,1.402-4.672,1.402c-1.051,0-1.596-0.351-1.596-0.351c0.195-0.506,0.273-1.09,0.273-1.674
	c0-1.597-0.701-3.232-2.102-3.232c-1.986,0-3.037,2.103-3.037,3.855c0,1.779,1.324,3.105,3.08,3.769
	c-1.497,2-3.89,5.148-7.441,7.483c0.35-1.986,0.506-3.621,0.584-4.556c0,0,2.453-2.803,2.453-5.801c0-1.597-0.467-2.453-2.102-2.453
	c-2.453,0-4.01,4.867-4.594,9.11c-1.908,2.142-4.244,3.932-6.619,3.932c-2.647,0-4.438-1.986-4.438-5.918
	c0-3.582,1.48-7.748,3.232-10.629c1.791,0.311,3.893,0.506,6.385,0.506c9.967,0,12.692-3.971,12.692-6.074
	C28.266,1.791,26.864,0,21.725,0c-4.594,0-9.383,2.414-13.237,5.84C7.553,5.061,7.008,4.088,7.008,3.114
	c0-2.063,2.18-2.453,2.18-2.842c0-0.078-0.117-0.194-0.39-0.194c-4.205,0-7.242,1.947-7.242,4.361c0,1.363,1.324,2.959,4.283,4.088
	C2.336,12.537,0,17.325,0,21.414c0,5.84,3.426,8.176,8.254,8.176c2.414,0,5.412-1.324,8.098-3.504l-0.467,2.063
	c-5.879,2.647-8.643,5.022-8.643,7.865c0,2.18,1.674,3.776,4.127,3.776c5.373,0,7.826-6.619,8.955-12.108
	c4.964-3.055,7.512-6.725,9.137-9.031c0.425,0.073,0.86,0.115,1.297,0.115c0,0-3.932,3.543-3.932,6.268
	c0,1.908,1.168,2.959,3.348,2.959c2.441,0,4.862-1.495,6.916-3.325c0.544,2.239,2.162,3.36,4.24,3.36
	c4.127,0,7.242-4.361,7.709-8.682c0.321-0.079,0.626-0.172,0.924-0.27c-0.045,0.18-0.087,0.36-0.128,0.541
	c-0.137,0.597-0.252,1.194-0.345,1.779c-0.179,1.125-0.276,2.198-0.276,3.093c0,1.402,0.506,3.504,2.959,3.504
	c1.635,0,3.193-1.324,4.594-3.076c0.078,1.362,0.584,3.076,2.764,3.076c1.705,0,2.879-0.393,5.032-2.746
	c-0.728,4.819-1.42,8.158-1.878,9.481c-0.662,1.869-1.207,1.986-1.557,1.986c-0.311,0-0.389,0.117-0.389,0.351
	c0,1.245,0.584,2.686,2.609,2.686c2.881,0,4.283-5.567,5.256-12.731c0.584,0.584,1.402,0.973,2.492,0.973
	c6.385,0,8.176-5.685,8.371-8.721C79.485,18.962,79.497,18.186,79.465,17.948z M19.934,2.025c1.869,0,2.647,0.896,2.647,1.908
	c0,3.27-5.373,3.854-7.631,3.854c-1.557,0-2.959-0.195-4.127-0.623C13.276,4.127,16.508,2.025,19.934,2.025z M11.524,35.702
	c-0.701,0-1.207-0.506-1.207-1.207c0-1.246,2.414-2.92,5.022-4.244C14.522,32.899,12.926,35.702,11.524,35.702z M42.77,24.252
	c-1.674,0-2.219-1.597-2.219-3.544c0-0.117,0.039-0.233,0.039-0.35c0.662-0.857,1.79-2.414,2.297-4.01
	c0.351,1.79,1.947,3.27,4.088,3.27h0.234C46.664,21.915,44.873,24.252,42.77,24.252z M45.652,16.504
	c0-0.428,0.272-0.662,0.584-0.662c0.506,0,1.207,0.584,1.246,1.907C46.352,17.671,45.652,17.166,45.652,16.504z M71.445,25.657
	c-0.584,0-1.129-0.389-1.129-1.012c0-1.635,2.764-2.881,4.828-3.621C74.676,23.866,73.041,25.657,71.445,25.657z M75.299,19.545
	c-2.336,0.818-4.711,1.596-6.151,3.037c0.779-4.204,2.764-6.657,4.205-6.657c1.246,0,1.947,1.051,1.947,3.309V19.545z"/>
</svg>
